<svg width="24" height="24" viewBox="0 0 24 24" fill="none" xmlns="http://www.w3.org/2000/svg">
    <path d="M10.0129 10.7045C10.3432 10.3742 10.3432 9.83742 10.0129 9.5071C9.68258 9.17677 9.14581 9.17677 8.81548 9.5071L4.33548 13.9871C3.57161 14.751 3.15871 15.7419 3.15871 16.8155C3.15871 17.889 3.57161 18.88 4.33548 19.6439C5.90452 21.2129 8.44387 21.2129 9.99226 19.6439L20.1084 9.52774C21.1613 8.47484 21.7394 7.07097 21.7394 5.58452C21.7394 4.09806 21.1613 2.69419 20.1084 1.64129C17.92 -0.547097 14.3897 -0.547097 12.2013 1.64129L2.10581 11.7368C0.743226 13.0994 0 14.8955 0 16.8155C0 18.7355 0.743226 20.5523 2.10581 21.8942C3.46839 23.2568 5.26452 24 7.18452 24C9.10452 24 10.9213 23.2568 12.2632 21.8942L16.7432 17.4142C17.0735 17.0839 17.0735 16.5471 16.7432 16.2168C16.4129 15.8865 15.8761 15.8865 15.5458 16.2168L11.0658 20.6968C10.0335 21.729 8.65032 22.3071 7.18452 22.3071C5.71871 22.3071 4.33548 21.729 3.30323 20.6968C2.27097 19.6645 1.6929 18.2813 1.6929 16.8155C1.6929 15.3497 2.27097 13.9665 3.30323 12.9342L13.3987 2.83871C14.1419 2.09548 15.1123 1.70323 16.1445 1.70323C17.1768 1.70323 18.1677 2.11613 18.8903 2.83871C19.6335 3.58194 20.0258 4.55226 20.0258 5.58452C20.0258 6.61677 19.6129 7.60774 18.8903 8.33032L8.77419 18.4465C7.88645 19.3342 6.42064 19.3342 5.51226 18.4465C5.07871 18.0129 4.83097 17.4348 4.83097 16.8155C4.83097 16.1961 5.07871 15.6181 5.51226 15.1845L10.0129 10.7045Z" fill="#F2C94C"/>
</svg>